<?xml version="1.0" encoding="UTF-8" standalone="no"?>
<svg
	xmlns="http://www.w3.org/2000/svg"
	xmlns:oryx="http://www.b3mn.org/oryx"
	version="1.0"
    width="300"
    height="50">
	<g oryx:minimumSize="25 26">
		<defs>
			<marker id="search_marker" refX="25" refY="0" markerWidth="20" markerHeight="24">
				<path d="M1 1 L1 23 Z M7 5 A 4 4 0 0 0 16 16 M7 5 A 4 4 0 0 1 16 16 M 16 16 L 22 22 Z M 16 15 L 22 21 Z" oryx:anchors="left top" fill="none"/>
			</marker>
			<radialGradient id="transparent" cx="10%" cy="10%" r="100%" fx="10%" fy="10%">
				<stop offset="0%" stop-color="#ffffff" stop-opacity="0"/>
				<stop offset="100%" stop-color="#ffffff" stop-opacity="0"/>
		    </radialGradient>
		</defs>

		<rect id="bg_frame" oryx:anchors="left top" x="0" y="0" width="150" height="26" stroke="none" fill="url(#transparent)" />

		<g id="a">
			<rect id="label" oryx:anchors="left top" x="0" y="0" width="100" height="24" stroke="none" fill="url(#transparent)"  />
			<text id="label_text" oryx:anchors="left top" oryx:align="middle left" font-size="11" x="0" y="9" stroke="black"></text>
		</g>

		<g id="b">
			<path id="input" oryx:anchors="left top" d="M270,0 L270,24 120,24 120,0 270,0 Z" marker-end="url(#search_marker)" fill="none" style="opacity:0.9999;"/>
			<text id="input_text" oryx:anchors="left top" oryx:align="middle left" font-size="11" x="120" y="15" stroke="black" fill="gray" font-style="italic" display="none"></text>
		</g>

		<g id="c" transform="translate(1,8)">
			<path id="mandatory_Indicator" oryx:anchors="middle left" d='m14.30275,11.94655l-2.49912,0l-0.77223,2.37422l-0.77227,-2.37422l-2.49912,0l2.02183,-1.46721l-0.77229,-2.37417l2.02184,1.46732l2.02183,-1.46732l-0.77232,2.37417l2.02184,1.46721z' stroke="#ff0000" fill="#ff0000" display="none"/>
		</g>

		<g id="d">
			<path id="feedback_Indicator"  oryx:anchors="left top" d='M300,15 320,15 310,0 Z M310 4 L310 10 Z M310 11 L310 13 Z' stroke="black" fill="#ff0000" display="none"/>
		</g>

		<g id="e">
			<rect id="desc" oryx:anchors="left top" stroke="none" fill="url(#transparent)" x="120" y="0" height="24" width="150" display="none"/>
			<text id="desc_text" oryx:anchors="left top" oryx:align="middle left" font-size="11" x="120" y="9" stroke="black" fill="gray" font-style="italic" display="none"></text>
		</g>

	</g>
</svg>